<svg xmlns="http://www.w3.org/2000/svg" width="400" height="398" fill="none" viewBox="0 0 400 398">
  <g clip-path="url(#a)">
    <path fill="url(#b)" d="M198.563 0C97.013 0 103.35 44.038 103.35 44.038l.125 45.624h96.9v13.688H64.963S0 95.975 0 198.45c0 102.45 56.712 98.825 56.712 98.825h33.85v-47.55s-1.825-56.712 55.813-56.712h96.1s54 .875 54-52.188V53.088S304.675 0 198.563 0Zm-53.438 30.675c9.638 0 17.437 7.8 17.437 17.437 0 9.638-7.799 17.438-17.437 17.438a17.413 17.413 0 0 1-17.437-17.438c0-9.637 7.8-17.437 17.437-17.437Z"/>
    <path fill="url(#c)" d="M201.437 397.913c101.55 0 95.213-44.038 95.213-44.038l-.125-45.625h-96.9v-13.687h135.4S400 301.938 400 199.475c0-102.462-56.713-98.825-56.713-98.825h-33.85v47.538s1.825 56.712-55.812 56.712h-96.1s-54-.875-54 52.188v87.737s-8.2 53.088 97.912 53.088Zm53.438-30.675a17.42 17.42 0 0 1-12.338-5.1 17.411 17.411 0 0 1-5.1-12.338c0-9.625 7.8-17.425 17.438-17.425 9.637 0 17.437 7.788 17.437 17.425 0 9.65-7.8 17.438-17.437 17.438Z"/>
  </g>
  <defs>
    <linearGradient id="b" x1="38.438" x2="236.225" y1="34.775" y2="233.225" gradientUnits="userSpaceOnUse">
      <stop stop-color="#387EB8"/>
      <stop offset="1" stop-color="#366994"/>
    </linearGradient>
    <linearGradient id="c" x1="160.112" x2="372.537" y1="161.025" y2="364.538" gradientUnits="userSpaceOnUse">
      <stop stop-color="#FFE052"/>
      <stop offset="1" stop-color="#FFC331"/>
    </linearGradient>
    <clipPath id="a">
      <path fill="#fff" d="M0 0h400v398H0z"/>
    </clipPath>
  </defs>
</svg>
