<svg xmlns="http://www.w3.org/2000/svg" width="80" height="91" fill="none" viewBox="0 0 80 91">
  <path fill="#FEFEFE" fill-rule="evenodd" d="M73.846 18.52 45.21 1.523a10.789 10.789 0 0 0-11.049 0L5.523 18.52C2.106 20.55 0 24.299 0 28.357v33.998c0 4.057 2.106 7.808 5.524 9.837l28.637 16.996a10.799 10.799 0 0 0 11.047 0l28.637-16.996c3.418-2.03 5.525-5.78 5.525-9.837V28.357c0-4.058-2.107-7.807-5.524-9.836Z" clip-rule="evenodd"/>
  <path fill="#3E474A" fill-rule="evenodd" d="M35.162 87.447 6.525 70.451c-2.801-1.663-4.541-4.765-4.541-8.097V28.357c0-3.332 1.74-6.434 4.54-8.096L35.162 3.262a8.868 8.868 0 0 1 4.523-1.246c1.585 0 3.149.431 4.523 1.246l28.637 17c2.36 1.4 3.952 3.826 4.4 6.547-.95-2.027-3.092-2.578-5.588-1.12L44.565 42.423c-3.378 1.975-5.869 4.191-5.871 8.264V84.07c-.002 2.44.983 4.02 2.496 4.477a8.82 8.82 0 0 1-1.505.146 8.868 8.868 0 0 1-4.523-1.246ZM73.846 18.52 45.209 1.522A10.806 10.806 0 0 0 39.685 0c-1.908 0-3.816.507-5.525 1.522L5.523 18.52C2.106 20.55 0 24.3 0 28.357v33.997c0 4.057 2.106 7.808 5.524 9.837l28.637 16.997a10.814 10.814 0 0 0 5.524 1.521c1.908 0 3.814-.507 5.523-1.52L73.846 72.19c3.418-2.029 5.524-5.78 5.524-9.837V28.357c0-4.058-2.106-7.808-5.524-9.837Z" clip-rule="evenodd"/>
  <path fill="#47B353" fill-rule="evenodd" d="m66.34 65.641-7.132 4.268c-.189.11-.328.234-.329.461v1.866c0 .228.153.323.342.212l7.241-4.4c.19-.11.218-.322.22-.549v-1.646c0-.227-.154-.322-.343-.212Z" clip-rule="evenodd"/>
  <path fill="#FEFEFE" fill-rule="evenodd" d="M51.154 49.934c.231-.117.421.027.424.33l.024 2.466c1.033-.41 1.93-.52 2.743-.333.176.047.254.287.182.572l-.543 2.186a.936.936 0 0 1-.247.436.58.58 0 0 1-.143.106.324.324 0 0 1-.214.035c-.37-.084-1.253-.277-2.64.426-1.457.737-1.966 2.002-1.956 2.941.012 1.121.587 1.461 2.573 1.495 2.646.044 3.79 1.2 3.817 3.865.027 2.617-1.37 5.427-3.507 7.15l.047 2.441c.003.294-.188.631-.419.748l-1.446.833c-.232.117-.422-.027-.425-.32l-.025-2.403c-1.239.515-2.494.64-3.296.317-.15-.059-.216-.282-.156-.536l.524-2.208a.916.916 0 0 1 .26-.459.546.546 0 0 1 .135-.099.288.288 0 0 1 .233-.025c.864.291 1.97.155 3.032-.383 1.35-.683 2.253-2.06 2.24-3.428-.014-1.24-.686-1.757-2.32-1.769-2.08.006-4.019-.404-4.05-3.466-.027-2.52 1.284-5.144 3.36-6.803l-.027-2.465c-.003-.303.182-.636.42-.756l1.4-.894Z" clip-rule="evenodd"/>
</svg>
